<!-- Generator: Adobe Illustrator 24.1.0, SVG Export Plug-In  -->
<svg version="1.1" xmlns="http://www.w3.org/2000/svg" xmlns:xlink="http://www.w3.org/1999/xlink" x="0px" y="0px" width="40px"
	 height="40px" viewBox="0 0 40 40" style="enable-background:new 0 0 40 40;" xml:space="preserve">
<style type="text/css">
	.st0{fill:#EE7344;}
	.st1{fill:none;stroke:#383E56;stroke-miterlimit:10;}
</style>
<defs>
</defs>
<path class="st0" d="M36.01,40H3.99C1.79,40,0,38.21,0,36.01V3.99C0,1.79,1.79,0,3.99,0h32.02C38.21,0,40,1.79,40,3.99v32.02
	C40,38.21,38.21,40,36.01,40z"/>
<line class="st1" x1="1.94" y1="11.3" x2="17.2" y2="11.3"/>
<line class="st1" x1="29.49" y1="5.7" x2="29.49" y2="16.13"/>
<line class="st1" x1="34.7" y1="10.91" x2="24.27" y2="10.91"/>
<line class="st1" x1="9.57" y1="24.94" x2="9.57" y2="35.37"/>
<line class="st1" x1="14.78" y1="30.15" x2="4.36" y2="30.15"/>
<line class="st1" x1="14.08" y1="32.76" x2="5.06" y2="27.55"/>
<line class="st1" x1="14.08" y1="27.55" x2="5.06" y2="32.76"/>
<line class="st1" x1="25.43" y1="34.96" x2="33.54" y2="25.73"/>
</svg>
